<mxfile host="app.diagrams.net" modified="2023-06-14T08:34:24.600Z" agent="Mozilla/5.0 (Macintosh; Intel Mac OS X 10_15_7) AppleWebKit/537.36 (KHTML, like Gecko) Chrome/114.0.0.0 Safari/537.36" etag="MCVrpRx8zwEgyw9kqQBK" version="21.3.3" type="github">
  <diagram id="kgpKYQtTHZ0yAKxKKP6v" name="Page-1">
    <mxGraphModel dx="954" dy="520" grid="1" gridSize="10" guides="1" tooltips="1" connect="1" arrows="1" fold="1" page="1" pageScale="1" pageWidth="850" pageHeight="1100" math="0" shadow="0">
      <root>
        <mxCell id="0" />
        <mxCell id="1" parent="0" />
        <mxCell id="yZqGWqRkGeLSpYFyMEF4-1" value="Pool" style="swimlane;childLayout=stackLayout;resizeParent=1;resizeParentMax=0;horizontal=0;startSize=20;horizontalStack=0;html=1;" vertex="1" parent="1">
          <mxGeometry x="140" y="50" width="480" height="360" as="geometry" />
        </mxCell>
        <mxCell id="yZqGWqRkGeLSpYFyMEF4-2" value="portal" style="swimlane;startSize=20;horizontal=0;html=1;" vertex="1" parent="yZqGWqRkGeLSpYFyMEF4-1">
          <mxGeometry x="20" width="460" height="120" as="geometry" />
        </mxCell>
        <mxCell id="yZqGWqRkGeLSpYFyMEF4-3" value="service" style="swimlane;startSize=20;horizontal=0;html=1;" vertex="1" parent="yZqGWqRkGeLSpYFyMEF4-1">
          <mxGeometry x="20" y="120" width="460" height="120" as="geometry" />
        </mxCell>
        <mxCell id="yZqGWqRkGeLSpYFyMEF4-4" value="gateway" style="swimlane;startSize=20;horizontal=0;html=1;" vertex="1" parent="yZqGWqRkGeLSpYFyMEF4-1">
          <mxGeometry x="20" y="240" width="460" height="120" as="geometry" />
        </mxCell>
      </root>
    </mxGraphModel>
  </diagram>
</mxfile>
